<svg width="202" height="40" viewBox="0 0 202 40" fill="none" xmlns="http://www.w3.org/2000/svg">
<path d="M118.553 38.2742C118.509 38.3957 118.421 38.4556 118.292 38.4556H117.1C116.97 38.4556 116.884 38.3957 116.838 38.2742L113.932 30.7379C113.919 30.7045 113.914 30.671 113.914 30.6411C113.914 30.5883 113.932 30.5478 113.965 30.5197C113.999 30.4915 114.046 30.4774 114.108 30.4774H115.618C115.743 30.4774 115.828 30.5373 115.873 30.6587L117.724 35.866L119.433 30.664C119.472 30.539 119.556 30.4774 119.69 30.4774H121.17C121.236 30.4774 121.287 30.4915 121.322 30.5232C121.357 30.5531 121.376 30.5936 121.376 30.6482C121.376 30.6746 121.369 30.7045 121.359 30.7379L120.45 33.3909L121.308 35.8607L123.119 30.664C123.165 30.539 123.251 30.4774 123.38 30.4774H124.88C124.943 30.4774 124.992 30.4915 125.027 30.5197C125.061 30.5478 125.079 30.5883 125.079 30.6411C125.079 30.671 125.073 30.7045 125.061 30.7379L122.137 38.2742C122.091 38.3957 122.005 38.4556 121.875 38.4556H120.706C120.577 38.4556 120.489 38.3957 120.445 38.2742L119.507 35.7815L118.553 38.2742ZM137.337 38.2284C137.337 38.3798 137.261 38.4556 137.11 38.4556H131.726C131.575 38.4556 131.499 38.3798 131.499 38.2284V30.7045C131.499 30.5531 131.575 30.4774 131.726 30.4774H137.03C137.182 30.4774 137.258 30.5531 137.258 30.7045V31.9244C137.258 32.0758 137.182 32.1515 137.03 32.1515H133.339V33.588H136.178C136.33 33.588 136.406 33.6637 136.406 33.8169V34.94C136.406 35.0914 136.33 35.1671 136.178 35.1671H133.339V36.7796H137.11C137.261 36.7796 137.337 36.8554 137.337 37.0067V38.2284ZM144.263 38.4556C144.111 38.4556 144.036 38.3798 144.036 38.2284V30.7045C144.036 30.5531 144.111 30.4774 144.263 30.4774H146.99C147.757 30.4774 148.461 30.6517 149.102 31.0002C149.741 31.347 150.248 31.8259 150.62 32.4367C150.993 33.0458 151.179 33.7218 151.179 34.463C151.179 35.2058 150.995 35.8818 150.623 36.4909C150.252 37.1001 149.748 37.5806 149.109 37.9309C148.472 38.2813 147.771 38.4556 147.005 38.4556H144.263ZM147.069 36.6899C147.493 36.6899 147.875 36.5948 148.215 36.4047C148.556 36.2163 148.824 35.9523 149.019 35.616C149.213 35.2798 149.312 34.8943 149.312 34.463C149.312 34.0387 149.213 33.6585 149.019 33.3187C148.824 32.9807 148.555 32.7166 148.213 32.5265C147.87 32.3381 147.484 32.2431 147.057 32.2431H145.875V36.6899H147.069ZM158.1 38.4556C157.949 38.4556 157.873 38.3798 157.873 38.2284V30.7045C157.873 30.5531 157.949 30.4774 158.1 30.4774H160.827C161.594 30.4774 162.299 30.6517 162.939 31.0002C163.578 31.347 164.085 31.8259 164.457 32.4367C164.83 33.0458 165.017 33.7218 165.017 34.463C165.017 35.2058 164.832 35.8818 164.46 36.4909C164.089 37.1001 163.585 37.5806 162.946 37.9309C162.309 38.2813 161.609 38.4556 160.843 38.4556H158.1ZM160.906 36.6899C161.33 36.6899 161.712 36.5948 162.052 36.4047C162.394 36.2163 162.661 35.9523 162.857 35.616C163.05 35.2798 163.149 34.8943 163.149 34.463C163.149 34.0387 163.05 33.6585 162.857 33.3187C162.661 32.9807 162.392 32.7166 162.05 32.5265C161.707 32.3381 161.322 32.2431 160.894 32.2431H159.713V36.6899H160.906ZM173.55 38.2284C173.55 38.3798 173.474 38.4556 173.323 38.4556H171.937C171.786 38.4556 171.71 38.3798 171.71 38.2284V30.7045C171.71 30.5531 171.786 30.4774 171.937 30.4774H173.323C173.474 30.4774 173.55 30.5531 173.55 30.7045V38.2284ZM182.469 38.2284C182.469 38.3798 182.393 38.4556 182.242 38.4556H180.902C180.751 38.4556 180.675 38.3798 180.675 38.2284V30.7045C180.675 30.5531 180.751 30.4774 180.902 30.4774H182.412C182.534 30.4774 182.625 30.5267 182.685 30.6253L185.792 35.3379V30.7045C185.792 30.5531 185.868 30.4774 186.019 30.4774H187.359C187.51 30.4774 187.586 30.5531 187.586 30.7045V38.2284C187.586 38.3798 187.51 38.4556 187.359 38.4556H186.012C185.896 38.4556 185.805 38.4063 185.741 38.3077L182.469 33.3785V38.2284ZM199.418 35.0087C199.418 34.8573 199.494 34.7816 199.646 34.7816H200.941C201.093 34.7816 201.168 34.8573 201.168 35.0087V37.5472C201.168 37.6651 201.122 37.7549 201.031 37.8201C200.679 38.0647 200.276 38.2566 199.822 38.394C199.367 38.5295 198.903 38.5981 198.426 38.5981C197.66 38.5981 196.963 38.4115 196.329 38.0418C195.697 37.6704 195.199 37.167 194.833 36.5332C194.468 35.8994 194.285 35.2058 194.285 34.4524C194.285 33.6954 194.468 33.0018 194.833 32.3716C195.199 31.7396 195.697 31.2414 196.327 30.8753C196.957 30.5073 197.656 30.3242 198.426 30.3242C198.894 30.3242 199.344 30.3964 199.774 30.5425C200.204 30.6887 200.593 30.8929 200.941 31.1587C201.005 31.2115 201.038 31.2661 201.038 31.3224C201.038 31.3717 201.017 31.4227 200.975 31.4755L200.174 32.5212C200.121 32.5864 200.064 32.618 200.005 32.618C199.955 32.618 199.906 32.6004 199.857 32.567C199.647 32.4227 199.42 32.3082 199.175 32.2202C198.929 32.1339 198.679 32.0899 198.426 32.0899C198.024 32.0899 197.647 32.1956 197.297 32.405C196.949 32.6145 196.669 32.9015 196.461 33.2624C196.251 33.6232 196.148 34.0229 196.148 34.4577C196.148 34.896 196.253 35.3027 196.463 35.6724C196.674 36.0438 196.952 36.3378 197.301 36.5526C197.649 36.7691 198.024 36.8765 198.426 36.8765C198.785 36.8765 199.116 36.8166 199.418 36.6951V35.0087Z" fill="#1A1A18"/>
<path d="M195.368 13.2933C195.093 12.1 194.562 11.1719 193.777 10.5089C192.991 9.85084 192.023 9.52182 190.884 9.52182C189.774 9.52182 188.807 9.85576 187.977 10.5285C187.147 11.1964 186.587 12.1196 186.293 13.2933H195.368ZM191.203 25.236C189.332 25.236 187.648 24.7892 186.15 23.8955C184.648 23.0017 183.474 21.7986 182.624 20.2762C181.775 18.7539 181.348 17.099 181.348 15.3017C181.348 13.4946 181.75 11.8299 182.551 10.3026C183.356 8.78032 184.471 7.5674 185.905 6.66873C187.334 5.77007 188.94 5.32319 190.727 5.32319C192.657 5.32319 194.341 5.75041 195.77 6.60489C197.204 7.45934 198.294 8.64285 199.051 10.1455C199.807 11.6531 200.185 13.3571 200.185 15.2722C200.185 15.6111 200.165 15.9794 200.136 16.3821C200.092 16.7504 199.871 16.9321 199.468 16.9321H186.322C186.543 17.7472 186.902 18.4544 187.398 19.0486C187.894 19.6477 188.488 20.1044 189.18 20.4187C189.873 20.7379 190.614 20.895 191.41 20.895C192.146 20.895 192.819 20.787 193.428 20.5709C194.032 20.3548 194.616 20.0405 195.176 19.628C195.314 19.52 195.451 19.4709 195.589 19.4709C195.77 19.4709 195.923 19.5642 196.05 19.7557L197.744 22.1619C197.848 22.3191 197.902 22.4566 197.902 22.5745C197.902 22.7512 197.818 22.9084 197.646 23.0312C196.762 23.7285 195.775 24.2736 194.695 24.6566C193.61 25.0445 192.446 25.236 191.203 25.236ZM170.687 5.30845C172.238 5.30845 173.599 5.65713 174.767 6.35442C175.931 7.05178 176.835 8.03884 177.473 9.31556C178.111 10.5923 178.431 12.0754 178.431 13.7647V24.1262C178.431 24.5485 178.219 24.7597 177.797 24.7597H174.188C173.766 24.7597 173.554 24.5485 173.554 24.1262V14.3049C173.554 13.3964 173.397 12.6009 173.078 11.9182C172.764 11.2406 172.307 10.7151 171.708 10.3468C171.109 9.97363 170.412 9.79195 169.611 9.79195C168.766 9.79195 167.981 9.98837 167.264 10.3861C166.547 10.779 165.972 11.3093 165.545 11.9772C165.118 12.6401 164.907 13.3473 164.907 14.0986V24.1262C164.907 24.5485 164.696 24.7597 164.268 24.7597H160.674C160.251 24.7597 160.04 24.5485 160.04 24.1262V6.27095C160.04 5.84862 160.251 5.63749 160.674 5.63749H163.448C163.807 5.63749 164.042 5.80936 164.16 6.14817L164.715 7.8571C165.442 7.12051 166.36 6.50668 167.47 6.02544C168.58 5.5491 169.65 5.30845 170.687 5.30845ZM145.721 20.5119C146.683 20.5119 147.552 20.291 148.328 19.8392C149.104 19.3923 149.713 18.7736 150.16 17.9781C150.602 17.1874 150.823 16.2888 150.823 15.287C150.823 14.2852 150.602 13.3767 150.16 12.5714C149.713 11.7611 149.109 11.1276 148.338 10.6611C147.567 10.1946 146.703 9.96381 145.755 9.96381C144.802 9.96381 143.948 10.1946 143.187 10.6611C142.426 11.1276 141.831 11.7611 141.399 12.5714C140.967 13.3767 140.746 14.2852 140.746 15.287C140.746 16.2888 140.962 17.1923 141.389 17.9879C141.817 18.7834 142.411 19.4071 143.162 19.849C143.918 20.291 144.773 20.5119 145.721 20.5119ZM151.329 6.14817C151.446 5.80936 151.682 5.63749 152.041 5.63749H154.751C155.174 5.63749 155.385 5.84862 155.385 6.27095V24.1262C155.385 24.5485 155.174 24.7597 154.751 24.7597H151.947C151.599 24.7597 151.363 24.5879 151.235 24.2392L150.916 22.9673C149.526 24.4356 147.763 25.1722 145.642 25.1722C143.859 25.1722 142.219 24.7303 140.726 23.8414C139.229 22.9526 138.05 21.7495 137.186 20.2222C136.317 18.695 135.884 17.0303 135.884 15.2231C135.884 13.416 136.322 11.7562 137.191 10.2437C138.065 8.72632 139.248 7.52811 140.741 6.64416C142.234 5.76515 143.869 5.32319 145.642 5.32319C147.798 5.32319 149.566 6.05489 150.95 7.52322L151.329 6.14817ZM132.481 24.1262C132.481 24.5485 132.27 24.7597 131.848 24.7597H128.297C127.875 24.7597 127.664 24.5485 127.664 24.1262V0.633476C127.664 0.211178 127.875 0 128.297 0H131.848C132.27 0 132.481 0.211178 132.481 0.633476V24.1262ZM114.439 20.5119C115.387 20.5119 116.242 20.291 116.998 19.849C117.754 19.4071 118.343 18.7834 118.771 17.9879C119.198 17.1923 119.414 16.2888 119.414 15.287C119.414 14.2852 119.198 13.3767 118.766 12.5714C118.329 11.7611 117.735 11.1276 116.973 10.6611C116.212 10.1946 115.358 9.96381 114.405 9.96381C113.457 9.96381 112.598 10.1946 111.827 10.6611C111.056 11.1276 110.447 11.7611 110.005 12.5714C109.558 13.3767 109.337 14.2852 109.337 15.287C109.337 16.2888 109.558 17.1874 110.005 17.9781C110.447 18.7736 111.056 19.3923 111.832 19.8392C112.608 20.291 113.477 20.5119 114.439 20.5119ZM114.518 5.32319C116.291 5.32319 117.926 5.76515 119.419 6.64416C120.917 7.52811 122.1 8.72632 122.969 10.2437C123.839 11.7562 124.276 13.416 124.276 15.2231C124.276 17.0303 123.843 18.695 122.979 20.2222C122.11 21.7495 120.931 22.9526 119.439 23.8414C117.941 24.7303 116.306 25.1722 114.518 25.1722C113.526 25.1722 112.623 25.0102 111.802 24.6811C110.982 24.3521 110.26 23.9003 109.642 23.3159V39.3665C109.642 39.7888 109.431 40 109.003 40H105.409C104.986 40 104.775 39.7888 104.775 39.3665V6.27095C104.775 5.84862 104.986 5.63749 105.409 5.63749H108.119C108.478 5.63749 108.714 5.80936 108.831 6.14817L109.21 7.52322C110.594 6.05489 112.362 5.32319 114.518 5.32319ZM97.9494 5.32319C99.2065 5.32319 100.473 5.6866 101.75 6.41829C101.971 6.55087 102.084 6.72766 102.084 6.9388C102.084 7.04193 102.05 7.1598 101.991 7.28745L100.405 10.2634C100.277 10.4991 100.115 10.612 99.9136 10.612C99.786 10.612 99.6632 10.5776 99.5502 10.504C98.7449 10.0718 97.9837 9.85576 97.2668 9.85576C96.5695 9.85576 95.9065 10.0571 95.2731 10.4647C94.6396 10.8723 94.1239 11.4665 93.736 12.2522C93.3432 13.0379 93.1516 13.9759 93.1516 15.066V24.1262C93.1516 24.5485 92.9405 24.7597 92.5133 24.7597H88.9186C88.4963 24.7597 88.2851 24.5485 88.2851 24.1262V6.27095C88.2851 5.84862 88.4963 5.63749 88.9186 5.63749H91.6932C92.0516 5.63749 92.2874 5.80936 92.4052 6.14817L93.024 7.95044C93.6231 7.10577 94.3253 6.45758 95.1306 6.00578C95.9311 5.5491 96.874 5.32319 97.9494 5.32319ZM80.0794 13.2933C79.8044 12.1 79.2741 11.1719 78.4883 10.5089C77.7026 9.85084 76.7352 9.52182 75.5959 9.52182C74.4861 9.52182 73.5187 9.85576 72.6888 10.5285C71.8589 11.1964 71.2991 12.1196 71.0044 13.2933H80.0794ZM75.9151 25.236C74.0442 25.236 72.3598 24.7892 70.862 23.8955C69.3594 23.0017 68.1857 21.7986 67.3362 20.2762C66.4866 18.7539 66.0594 17.099 66.0594 15.3017C66.0594 13.4946 66.462 11.8299 67.2625 10.3026C68.0679 8.78032 69.1826 7.5674 70.6165 6.66873C72.0455 5.77007 73.6513 5.32319 75.4388 5.32319C77.3687 5.32319 79.053 5.75041 80.4821 6.60489C81.916 7.45934 83.0062 8.64285 83.7624 10.1455C84.5187 11.6531 84.8968 13.3571 84.8968 15.2722C84.8968 15.6111 84.8772 15.9794 84.8477 16.3821C84.8035 16.7504 84.5825 16.9321 84.1798 16.9321H71.0339C71.2549 17.7472 71.6134 18.4544 72.1094 19.0486C72.6053 19.6477 73.1995 20.1044 73.8919 20.4187C74.5843 20.7379 75.3258 20.895 76.1214 20.895C76.858 20.895 77.5308 20.787 78.1397 20.5709C78.7437 20.3548 79.3281 20.0405 79.8879 19.628C80.0254 19.52 80.1629 19.4709 80.3004 19.4709C80.4821 19.4709 80.6343 19.5642 80.762 19.7557L82.4562 22.1619C82.5593 22.3191 82.6133 22.4566 82.6133 22.5745C82.6133 22.7512 82.5298 22.9084 82.3579 23.0312C81.474 23.7285 80.487 24.2736 79.4066 24.6566C78.3214 25.0445 77.1575 25.236 75.9151 25.236ZM54.1019 20.5119C55.0496 20.5119 55.9041 20.291 56.6603 19.849C57.4166 19.4071 58.0059 18.7834 58.4331 17.9879C58.8603 17.1923 59.0764 16.2888 59.0764 15.287C59.0764 14.2852 58.8603 13.3767 58.4282 12.5714C57.9911 11.7611 57.3969 11.1276 56.6358 10.6611C55.8746 10.1946 55.0201 9.96381 54.0675 9.96381C53.1197 9.96381 52.2603 10.1946 51.4894 10.6611C50.7184 11.1276 50.1095 11.7611 49.6675 12.5714C49.2206 13.3767 48.9996 14.2852 48.9996 15.287C48.9996 16.2888 49.2206 17.1874 49.6675 17.9781C50.1095 18.7736 50.7184 19.3923 51.4943 19.8392C52.2702 20.291 53.1394 20.5119 54.1019 20.5119ZM54.1804 5.32319C55.9532 5.32319 57.5884 5.76515 59.0813 6.64416C60.5791 7.52811 61.7625 8.72632 62.6317 10.2437C63.5009 11.7562 63.938 13.416 63.938 15.2231C63.938 17.0303 63.5059 18.695 62.6415 20.2222C61.7723 21.7495 60.5938 22.9526 59.1009 23.8414C57.6032 24.7303 55.9679 25.1722 54.1804 25.1722C53.1885 25.1722 52.2849 25.0102 51.4648 24.6811C50.6447 24.3521 49.9229 23.9003 49.3041 23.3159V29.749C49.3041 30.1713 49.0929 30.3825 48.6657 30.3825H45.0711C44.6488 30.3825 44.4376 30.1713 44.4376 29.749V6.27095C44.4376 5.84862 44.6488 5.63749 45.0711 5.63749H47.7818C48.1403 5.63749 48.376 5.80936 48.4939 6.14817L48.872 7.52322C50.2568 6.05489 52.0246 5.32319 54.1804 5.32319ZM31.4579 20.5119C32.4204 20.5119 33.2896 20.291 34.0655 19.8392C34.8413 19.3923 35.4503 18.7736 35.8971 17.9781C36.3391 17.1874 36.5601 16.2888 36.5601 15.287C36.5601 14.2852 36.3391 13.3767 35.8971 12.5714C35.4503 11.7611 34.8463 11.1276 34.0753 10.6611C33.3043 10.1946 32.44 9.96381 31.4923 9.96381C30.5396 9.96381 29.6851 10.1946 28.924 10.6611C28.1628 11.1276 27.5686 11.7611 27.1365 12.5714C26.7043 13.3767 26.4834 14.2852 26.4834 15.287C26.4834 16.2888 26.6994 17.1923 27.1267 17.9879C27.5539 18.7834 28.1481 19.4071 28.8994 19.849C29.6557 20.291 30.5101 20.5119 31.4579 20.5119ZM37.0659 6.14817C37.1837 5.80936 37.4195 5.63749 37.7779 5.63749H40.4886C40.911 5.63749 41.1221 5.84862 41.1221 6.27095V24.1262C41.1221 24.5485 40.911 24.7597 40.4886 24.7597H37.6846C37.336 24.7597 37.1003 24.5879 36.9726 24.2392L36.6534 22.9673C35.2637 24.4356 33.5008 25.1722 31.3793 25.1722C29.5967 25.1722 27.9566 24.7303 26.4637 23.8414C24.966 22.9526 23.7874 21.7495 22.9231 20.2222C22.0539 18.695 21.6218 17.0303 21.6218 15.2231C21.6218 13.416 22.0588 11.7562 22.928 10.2437C23.8021 8.72632 24.9856 7.52811 26.4784 6.64416C27.9713 5.76515 29.6066 5.32319 31.3793 5.32319C33.5351 5.32319 35.3029 6.05489 36.6878 7.52322L37.0659 6.14817ZM9.66427 20.5119C10.612 20.5119 11.4665 20.291 12.2228 19.849C12.979 19.4071 13.5683 18.7834 13.9955 17.9879C14.4227 17.1923 14.6388 16.2888 14.6388 15.287C14.6388 14.2852 14.4227 13.3767 13.9906 12.5714C13.5536 11.7611 12.9593 11.1276 12.1982 10.6611C11.437 10.1946 10.5826 9.96381 9.62988 9.96381C8.68213 9.96381 7.82276 10.1946 7.05178 10.6611C6.28079 11.1276 5.67186 11.7611 5.22991 12.5714C4.78305 13.3767 4.56208 14.2852 4.56208 15.287C4.56208 16.2888 4.78305 17.1874 5.22991 17.9781C5.67186 18.7736 6.2808 19.3923 7.05668 19.8392C7.83255 20.291 8.70179 20.5119 9.66427 20.5119ZM9.74285 5.32319C11.5156 5.32319 13.1509 5.76515 14.6437 6.64416C16.1415 7.52811 17.3249 8.72632 18.1941 10.2437C19.0633 11.7562 19.5004 13.416 19.5004 15.2231C19.5004 17.0303 19.0683 18.695 18.2039 20.2222C17.3348 21.7495 16.1562 22.9526 14.6634 23.8414C13.1656 24.7303 11.5304 25.1722 9.74285 25.1722C8.7509 25.1722 7.84732 25.0102 7.02723 24.6811C6.20711 24.3521 5.48526 23.9003 4.86654 23.3159V29.749C4.86654 30.1713 4.65536 30.3825 4.22814 30.3825H0.633489C0.211177 30.3825 0 30.1713 0 29.749V6.27095C0 5.84862 0.211177 5.63749 0.633489 5.63749H3.34418C3.7027 5.63749 3.93838 5.80936 4.05625 6.14817L4.43437 7.52322C5.81918 6.05489 7.58709 5.32319 9.74285 5.32319Z" fill="#1A1A18"/>
</svg>
