<svg width="599" height="119" viewBox="0 0 599 119" fill="none" xmlns="http://www.w3.org/2000/svg">
<path d="M352.691 113.865C352.56 114.227 352.298 114.405 351.915 114.405H348.37C347.982 114.405 347.726 114.227 347.59 113.865L338.943 91.445C338.906 91.3455 338.891 91.246 338.891 91.1569C338.891 90.9999 338.943 90.8794 339.042 90.7956C339.142 90.7118 339.283 90.6699 339.467 90.6699H343.96C344.332 90.6699 344.583 90.848 344.72 91.2094L350.224 106.701L355.309 91.225C355.424 90.8531 355.676 90.6699 356.074 90.6699H360.478C360.672 90.6699 360.824 90.7118 360.929 90.806C361.033 90.8951 361.091 91.0156 361.091 91.1779C361.091 91.2565 361.07 91.3455 361.039 91.445L358.336 99.3375L360.887 106.685L366.276 91.225C366.412 90.8531 366.669 90.6699 367.051 90.6699H371.513C371.702 90.6699 371.848 90.7118 371.953 90.7956C372.053 90.8794 372.105 90.9999 372.105 91.1569C372.105 91.246 372.089 91.3455 372.053 91.445L363.354 113.865C363.217 114.227 362.961 114.405 362.573 114.405H359.096C358.713 114.405 358.452 114.227 358.321 113.865L355.529 106.45L352.691 113.865ZM408.573 113.729C408.573 114.18 408.348 114.405 407.898 114.405H391.882C391.432 114.405 391.207 114.18 391.207 113.729V91.3455C391.207 90.8951 391.432 90.6699 391.882 90.6699H407.662C408.112 90.6699 408.338 90.8951 408.338 91.3455V94.9748C408.338 95.4253 408.112 95.6504 407.662 95.6504H396.679V99.924H405.127C405.577 99.924 405.803 100.149 405.803 100.605V103.946C405.803 104.397 405.577 104.622 405.127 104.622H396.679V109.419H407.898C408.348 109.419 408.573 109.644 408.573 110.095V113.729ZM429.178 114.405C428.727 114.405 428.502 114.18 428.502 113.729V91.3455C428.502 90.8951 428.727 90.6699 429.178 90.6699H437.29C439.574 90.6699 441.669 91.1883 443.575 92.2253C445.476 93.2571 446.984 94.6816 448.09 96.4988C449.2 98.3109 449.755 100.322 449.755 102.527C449.755 104.737 449.205 106.748 448.1 108.56C446.995 110.372 445.497 111.802 443.596 112.844C441.7 113.886 439.616 114.405 437.338 114.405H429.178ZM437.526 109.152C438.788 109.152 439.925 108.869 440.935 108.304C441.951 107.743 442.747 106.958 443.329 105.957C443.905 104.957 444.198 103.81 444.198 102.527C444.198 101.265 443.905 100.134 443.329 99.1227C442.747 98.1172 441.946 97.3316 440.93 96.7659C439.909 96.2056 438.762 95.9228 437.489 95.9228H433.975V109.152H437.526ZM470.344 114.405C469.894 114.405 469.668 114.18 469.668 113.729V91.3455C469.668 90.8951 469.894 90.6699 470.344 90.6699H478.456C480.74 90.6699 482.835 91.1883 484.741 92.2253C486.642 93.2571 488.15 94.6816 489.255 96.4988C490.366 98.3109 490.921 100.322 490.921 102.527C490.921 104.737 490.371 106.748 489.266 108.56C488.161 110.372 486.663 111.802 484.762 112.844C482.866 113.886 480.782 114.405 478.504 114.405H470.344ZM478.692 109.152C479.954 109.152 481.091 108.869 482.102 108.304C483.117 107.743 483.914 106.958 484.495 105.957C485.071 104.957 485.364 103.81 485.364 102.527C485.364 101.265 485.071 100.134 484.495 99.1227C483.914 98.1172 483.112 97.3316 482.096 96.7659C481.075 96.2056 479.928 95.9228 478.656 95.9228H475.141V109.152H478.692ZM516.307 113.729C516.307 114.18 516.082 114.405 515.632 114.405H511.51C511.06 114.405 510.834 114.18 510.834 113.729V91.3455C510.834 90.8951 511.06 90.6699 511.51 90.6699H515.632C516.082 90.6699 516.307 90.8951 516.307 91.3455V113.729ZM542.841 113.729C542.841 114.18 542.615 114.405 542.165 114.405H538.179C537.729 114.405 537.504 114.18 537.504 113.729V91.3455C537.504 90.8951 537.729 90.6699 538.179 90.6699H542.673C543.034 90.6699 543.307 90.8164 543.485 91.1098L552.728 105.13V91.3455C552.728 90.8951 552.954 90.6699 553.404 90.6699H557.389C557.84 90.6699 558.065 90.8951 558.065 91.3455V113.729C558.065 114.18 557.84 114.405 557.389 114.405H553.383C553.037 114.405 552.765 114.258 552.576 113.965L542.841 99.3008V113.729ZM593.266 104.15C593.266 103.7 593.491 103.475 593.942 103.475H597.796C598.247 103.475 598.472 103.7 598.472 104.15V111.702C598.472 112.053 598.336 112.32 598.063 112.514C597.016 113.242 595.817 113.813 594.465 114.222C593.114 114.625 591.732 114.829 590.312 114.829C588.034 114.829 585.96 114.274 584.075 113.174C582.195 112.069 580.712 110.571 579.623 108.686C578.539 106.8 577.994 104.737 577.994 102.496C577.994 100.244 578.539 98.18 579.623 96.3051C580.712 94.425 582.195 92.9428 584.07 91.8535C585.944 90.7589 588.024 90.2142 590.312 90.2142C591.705 90.2142 593.046 90.429 594.324 90.8636C595.602 91.2984 596.759 91.9059 597.796 92.6967C597.985 92.8538 598.084 93.0161 598.084 93.1838C598.084 93.3303 598.021 93.4822 597.896 93.6393L595.513 96.7503C595.356 96.9441 595.188 97.0383 595.01 97.0383C594.863 97.0383 594.717 96.9859 594.57 96.8864C593.947 96.457 593.271 96.1165 592.543 95.8548C591.81 95.5981 591.066 95.4671 590.312 95.4671C589.118 95.4671 587.997 95.7814 586.955 96.4046C585.918 97.0279 585.085 97.8815 584.467 98.9552C583.844 100.029 583.535 101.218 583.535 102.511C583.535 103.815 583.849 105.025 584.473 106.125C585.101 107.23 585.929 108.105 586.966 108.743C588.003 109.388 589.118 109.707 590.312 109.707C591.381 109.707 592.365 109.529 593.266 109.168V104.15Z" fill="#EFEFEF"/>
<path d="M581.219 39.5475C580.401 35.9973 578.823 33.2363 576.485 31.2639C574.148 29.3063 571.27 28.3274 567.88 28.3274C564.579 28.3274 561.701 29.3209 559.232 31.3224C556.763 33.3092 555.097 36.0557 554.221 39.5475H581.219ZM568.83 75.0772C563.264 75.0772 558.253 73.7478 553.797 71.089C549.327 68.43 545.835 64.8507 543.308 60.3218C540.78 55.793 539.509 50.8696 539.509 45.5226C539.509 40.1463 540.707 35.1938 543.088 30.6503C545.484 26.1214 548.801 22.513 553.067 19.8395C557.318 17.1659 562.095 15.8365 567.413 15.8365C573.154 15.8365 578.165 17.1075 582.417 19.6496C586.683 22.1915 589.926 25.7125 592.176 30.1828C594.425 34.6679 595.55 39.7374 595.55 45.4349C595.55 46.443 595.492 47.5387 595.404 48.7366C595.273 49.8323 594.615 50.3729 593.417 50.3729H554.308C554.966 52.798 556.032 54.9018 557.508 56.6696C558.983 58.4519 560.751 59.8105 562.811 60.7455C564.871 61.6952 567.077 62.1626 569.444 62.1626C571.635 62.1626 573.636 61.8413 575.448 61.1984C577.245 60.5555 578.984 59.6206 580.649 58.3934C581.058 58.072 581.467 57.9259 581.876 57.9259C582.417 57.9259 582.87 58.2035 583.249 58.7733L588.29 65.9318C588.596 66.3994 588.757 66.8084 588.757 67.159C588.757 67.685 588.509 68.1525 587.997 68.5177C585.368 70.5921 582.431 72.2139 579.217 73.3533C575.989 74.5075 572.526 75.0772 568.83 75.0772ZM507.792 15.7926C512.409 15.7926 516.456 16.8299 519.933 18.9044C523.395 20.979 526.083 23.9155 527.982 27.7138C529.882 31.5122 530.831 35.9243 530.831 40.9499V71.7756C530.831 73.0319 530.203 73.6602 528.947 73.6602H518.209C516.952 73.6602 516.324 73.0319 516.324 71.7756V42.557C516.324 39.8542 515.857 37.4875 514.907 35.4567C513.972 33.4407 512.613 31.8775 510.831 30.7817C509.049 29.6715 506.974 29.131 504.593 29.131C502.08 29.131 499.743 29.7154 497.61 30.8986C495.477 32.0675 493.767 33.6453 492.496 35.6321C491.225 37.6044 490.597 39.7081 490.597 41.9433V71.7756C490.597 73.0319 489.969 73.6602 488.698 73.6602H478.004C476.748 73.6602 476.119 73.0319 476.119 71.7756V18.6561C476.119 17.3996 476.748 16.7715 478.004 16.7715H486.258C487.325 16.7715 488.026 17.2829 488.377 18.2908L490.027 23.3749C492.189 21.1835 494.922 19.3574 498.223 17.9257C501.525 16.5086 504.71 15.7926 507.792 15.7926ZM433.519 61.023C436.382 61.023 438.968 60.3658 441.276 59.0216C443.585 57.6922 445.396 55.8514 446.725 53.4848C448.04 51.1326 448.698 48.4591 448.698 45.4788C448.698 42.4984 448.04 39.7958 446.725 37.3998C445.396 34.9893 443.599 33.1047 441.306 31.7169C439.012 30.3289 436.44 29.6423 433.621 29.6423C430.787 29.6423 428.245 30.3289 425.98 31.7169C423.716 33.1047 421.948 34.9893 420.663 37.3998C419.377 39.7958 418.719 42.4984 418.719 45.4788C418.719 48.4591 419.362 51.1471 420.633 53.5139C421.904 55.8806 423.672 57.736 425.907 59.0508C428.157 60.3658 430.699 61.023 433.519 61.023ZM450.202 18.2908C450.553 17.2829 451.254 16.7715 452.321 16.7715H460.385C461.642 16.7715 462.27 17.3996 462.27 18.6561V71.7756C462.27 73.0319 461.642 73.6602 460.385 73.6602H452.043C451.006 73.6602 450.305 73.1489 449.925 72.1115L448.975 68.3277C444.841 72.6959 439.596 74.8874 433.285 74.8874C427.982 74.8874 423.102 73.5725 418.661 70.9283C414.205 68.2839 410.699 64.7046 408.128 60.1611C405.542 55.6176 404.256 50.6652 404.256 45.2888C404.256 39.9126 405.556 34.9747 408.142 30.475C410.743 25.9608 414.264 22.3961 418.705 19.7664C423.146 17.1513 428.011 15.8365 433.285 15.8365C439.698 15.8365 444.958 18.0133 449.078 22.3816L450.202 18.2908ZM394.132 71.7756C394.132 73.0319 393.504 73.6602 392.247 73.6602H381.685C380.428 73.6602 379.8 73.0319 379.8 71.7756V1.88459C379.8 0.628242 380.428 0 381.685 0H392.247C393.504 0 394.132 0.628242 394.132 1.88459V71.7756ZM340.457 61.023C343.277 61.023 345.819 60.3658 348.069 59.0508C350.319 57.736 352.072 55.8806 353.343 53.5139C354.614 51.1471 355.257 48.4591 355.257 45.4788C355.257 42.4984 354.614 39.7958 353.328 37.3998C352.028 34.9893 350.26 33.1047 347.996 31.7169C345.731 30.3289 343.189 29.6423 340.355 29.6423C337.536 29.6423 334.979 30.3289 332.685 31.7169C330.392 33.1047 328.58 34.9893 327.265 37.3998C325.936 39.7958 325.278 42.4984 325.278 45.4788C325.278 48.4591 325.936 51.1326 327.265 53.4848C328.58 55.8514 330.392 57.6922 332.7 59.0216C335.008 60.3658 337.594 61.023 340.457 61.023ZM340.691 15.8365C345.965 15.8365 350.83 17.1513 355.271 19.7664C359.727 22.3961 363.248 25.9608 365.834 30.475C368.42 34.9747 369.72 39.9126 369.72 45.2888C369.72 50.6652 368.434 55.6176 365.863 60.1611C363.277 64.7046 359.771 68.2839 355.33 70.9283C350.874 73.5725 346.009 74.8874 340.691 74.8874C337.74 74.8874 335.052 74.4052 332.612 73.4264C330.172 72.4475 328.025 71.1034 326.184 69.3649V117.115C326.184 118.372 325.556 119 324.285 119H313.591C312.335 119 311.706 118.372 311.706 117.115V18.6561C311.706 17.3996 312.335 16.7715 313.591 16.7715H321.655C322.722 16.7715 323.423 17.2829 323.774 18.2908L324.899 22.3816C329.018 18.0133 334.278 15.8365 340.691 15.8365ZM291.399 15.8365C295.139 15.8365 298.909 16.9176 302.707 19.0944C303.364 19.4888 303.7 20.0148 303.7 20.6429C303.7 20.9497 303.598 21.3004 303.423 21.6802L298.704 30.5335C298.324 31.2347 297.842 31.5708 297.243 31.5708C296.863 31.5708 296.498 31.4685 296.162 31.2493C293.766 29.9637 291.502 29.3209 289.369 29.3209C287.294 29.3209 285.322 29.9199 283.437 31.1324C281.553 32.3451 280.019 34.1128 278.865 36.4503C277.696 38.7878 277.126 41.5782 277.126 44.8214V71.7756C277.126 73.0319 276.498 73.6602 275.227 73.6602H264.533C263.277 73.6602 262.648 73.0319 262.648 71.7756V18.6561C262.648 17.3996 263.277 16.7715 264.533 16.7715H272.787C273.854 16.7715 274.555 17.2829 274.906 18.2908L276.746 23.6525C278.529 21.1397 280.618 19.2113 283.014 17.8672C285.395 16.5086 288.2 15.8365 291.399 15.8365ZM238.236 39.5475C237.418 35.9973 235.84 33.2363 233.503 31.2639C231.165 29.3063 228.287 28.3274 224.898 28.3274C221.596 28.3274 218.718 29.3209 216.249 31.3224C213.78 33.3092 212.115 36.0557 211.238 39.5475H238.236ZM225.848 75.0772C220.281 75.0772 215.27 73.7478 210.815 71.089C206.344 68.43 202.852 64.8507 200.325 60.3218C197.798 55.793 196.527 50.8696 196.527 45.5226C196.527 40.1463 197.725 35.1938 200.106 30.6503C202.502 26.1214 205.818 22.513 210.084 19.8395C214.335 17.1659 219.113 15.8365 224.43 15.8365C230.172 15.8365 235.183 17.1075 239.434 19.6496C243.7 22.1915 246.943 25.7125 249.193 30.1828C251.443 34.6679 252.568 39.7374 252.568 45.4349C252.568 46.443 252.51 47.5387 252.422 48.7366C252.29 49.8323 251.633 50.3729 250.435 50.3729H211.326C211.983 52.798 213.05 54.9018 214.525 56.6696C216.001 58.4519 217.769 59.8105 219.828 60.7455C221.888 61.6952 224.094 62.1626 226.461 62.1626C228.653 62.1626 230.654 61.8413 232.466 61.1984C234.262 60.5555 236.001 59.6206 237.666 58.3934C238.075 58.072 238.485 57.9259 238.894 57.9259C239.434 57.9259 239.887 58.2035 240.267 58.7733L245.307 65.9318C245.614 66.3994 245.775 66.8084 245.775 67.159C245.775 67.685 245.526 68.1525 245.015 68.5177C242.385 70.5921 239.449 72.2139 236.235 73.3533C233.006 74.5075 229.544 75.0772 225.848 75.0772ZM160.953 61.023C163.773 61.023 166.315 60.3658 168.564 59.0508C170.814 57.736 172.567 55.8806 173.838 53.5139C175.109 51.1471 175.752 48.4591 175.752 45.4788C175.752 42.4984 175.109 39.7958 173.824 37.3998C172.524 34.9893 170.756 33.1047 168.491 31.7169C166.227 30.3289 163.685 29.6423 160.851 29.6423C158.031 29.6423 155.474 30.3289 153.181 31.7169C150.887 33.1047 149.076 34.9893 147.761 37.3998C146.431 39.7958 145.774 42.4984 145.774 45.4788C145.774 48.4591 146.431 51.1326 147.761 53.4848C149.076 55.8514 150.887 57.6922 153.196 59.0216C155.504 60.3658 158.09 61.023 160.953 61.023ZM161.187 15.8365C166.461 15.8365 171.326 17.1513 175.767 19.7664C180.223 22.3961 183.744 25.9608 186.329 30.475C188.915 34.9747 190.216 39.9126 190.216 45.2888C190.216 50.6652 188.93 55.6176 186.359 60.1611C183.773 64.7046 180.266 68.2839 175.825 70.9283C171.369 73.5725 166.505 74.8874 161.187 74.8874C158.236 74.8874 155.548 74.4052 153.108 73.4264C150.668 72.4475 148.52 71.1034 146.68 69.3649V88.5032C146.68 89.7595 146.051 90.3878 144.781 90.3878H134.087C132.83 90.3878 132.202 89.7595 132.202 88.5032V18.6561C132.202 17.3996 132.83 16.7715 134.087 16.7715H142.151C143.217 16.7715 143.919 17.2829 144.269 18.2908L145.394 22.3816C149.514 18.0133 154.773 15.8365 161.187 15.8365ZM93.5872 61.023C96.4507 61.023 99.0364 60.3658 101.345 59.0216C103.653 57.6922 105.465 55.8514 106.794 53.4848C108.109 51.1326 108.766 48.4591 108.766 45.4788C108.766 42.4984 108.109 39.7958 106.794 37.3998C105.465 34.9893 103.668 33.1047 101.374 31.7169C99.0804 30.3289 96.5091 29.6423 93.6895 29.6423C90.8553 29.6423 88.3132 30.3289 86.0489 31.7169C83.7843 33.1047 82.0167 34.9893 80.7311 37.3998C79.4454 39.7958 78.788 42.4984 78.788 45.4788C78.788 48.4591 79.4308 51.1471 80.7018 53.5139C81.9728 55.8806 83.7406 57.736 85.9758 59.0508C88.2256 60.3658 90.7677 61.023 93.5872 61.023ZM110.271 18.2908C110.622 17.2829 111.323 16.7715 112.389 16.7715H120.454C121.71 16.7715 122.338 17.3996 122.338 18.6561V71.7756C122.338 73.0319 121.71 73.6602 120.454 73.6602H112.112C111.075 73.6602 110.373 73.1489 109.994 72.1115L109.044 68.3277C104.909 72.6959 99.6647 74.8874 93.3535 74.8874C88.0503 74.8874 83.1708 73.5725 78.7296 70.9283C74.2738 68.2839 70.7675 64.7046 68.1963 60.1611C65.6104 55.6176 64.3249 50.6652 64.3249 45.2888C64.3249 39.9126 65.6251 34.9747 68.2108 30.475C70.8114 25.9608 74.3322 22.3961 78.7734 19.7664C83.2146 17.1513 88.0795 15.8365 93.3535 15.8365C99.767 15.8365 105.026 18.0133 109.146 22.3816L110.271 18.2908ZM28.7512 61.023C31.5708 61.023 34.1128 60.3658 36.3627 59.0508C38.6125 57.736 40.3656 55.8806 41.6366 53.5139C42.9076 51.1471 43.5504 48.4591 43.5504 45.4788C43.5504 42.4984 42.9076 39.7958 41.622 37.3998C40.3218 34.9893 38.554 33.1047 36.2896 31.7169C34.0251 30.3289 31.4831 29.6423 28.6489 29.6423C25.8293 29.6423 23.2727 30.3289 20.979 31.7169C18.6854 33.1047 16.8738 34.9893 15.559 37.3998C14.2296 39.7958 13.5722 42.4984 13.5722 45.4788C13.5722 48.4591 14.2296 51.1326 15.559 53.4848C16.8738 55.8514 18.6854 57.6922 20.9936 59.0216C23.3018 60.3658 25.8878 61.023 28.7512 61.023ZM28.985 15.8365C34.2589 15.8365 39.1238 17.1513 43.565 19.7664C48.0208 22.3961 51.5417 25.9608 54.1275 30.475C56.7134 34.9747 58.0137 39.9126 58.0137 45.2888C58.0137 50.6652 56.7281 55.6176 54.1567 60.1611C51.5709 64.7046 48.0648 68.2839 43.6235 70.9283C39.1676 73.5725 34.3028 74.8874 28.985 74.8874C26.0339 74.8874 23.3458 74.4052 20.906 73.4264C18.4662 72.4475 16.3187 71.1034 14.478 69.3649V88.5032C14.478 89.7595 13.8497 90.3878 12.5787 90.3878H1.88463C0.628252 90.3878 0 89.7595 0 88.5032V18.6561C0 17.3996 0.628252 16.7715 1.88463 16.7715H9.94893C11.0155 16.7715 11.7167 17.2829 12.0673 18.2908L13.1922 22.3816C17.3121 18.0133 22.5716 15.8365 28.985 15.8365Z" fill="#EFEFEF"/>
</svg>
